<svg width="16" height="17" viewBox="0 0 16 17" fill="none" xmlns="http://www.w3.org/2000/svg">
<g id="Google logo" clip-path="url(#clip0_1374_123388)">
<path id="Vector" d="M15.8182 8.96192C15.8182 8.30603 15.765 7.8274 15.6498 7.33105H8.16016V10.2914H12.5564C12.4678 11.0271 11.9892 12.1351 10.9255 12.8796L10.9106 12.9787L13.2787 14.8132L13.4428 14.8296C14.9496 13.438 15.8182 11.3905 15.8182 8.96192Z" fill="#4285F4"/>
<path id="Vector_2" d="M8.15947 16.7617C10.3133 16.7617 12.1214 16.0526 13.4421 14.8295L10.9249 12.8795C10.2512 13.3493 9.34715 13.6772 8.15947 13.6772C6.04997 13.6772 4.25956 12.2857 3.62133 10.3623L3.52778 10.3702L1.0654 12.2759L1.0332 12.3654C2.34499 14.9713 5.03949 16.7617 8.15947 16.7617Z" fill="#34A853"/>
<path id="Vector_3" d="M3.62162 10.3615C3.45322 9.86511 3.35575 9.33326 3.35575 8.78375C3.35575 8.23418 3.45322 7.70239 3.61276 7.20604L3.6083 7.10033L1.11507 5.16406L1.03349 5.20286C0.492843 6.28422 0.182617 7.49855 0.182617 8.78375C0.182617 10.069 0.492843 11.2832 1.03349 12.3646L3.62162 10.3615Z" fill="#FBBC05"/>
<path id="Vector_4" d="M8.15947 3.89112C9.65738 3.89112 10.6678 4.53815 11.2439 5.07886L13.4953 2.8807C12.1126 1.59549 10.3133 0.806641 8.15947 0.806641C5.03949 0.806641 2.34499 2.59705 1.0332 5.2029L3.61247 7.20608C4.25956 5.2827 6.04997 3.89112 8.15947 3.89112Z" fill="#EB4335"/>
</g>
<defs>
<clipPath id="clip0_1374_123388">
<rect width="15.6352" height="16" fill="white" transform="translate(0.182617 0.78418)"/>
</clipPath>
</defs>
</svg>
