<svg width="21" height="23" viewBox="0 0 21 23" fill="none" xmlns="http://www.w3.org/2000/svg">
<g id="Group 2">
<g id="Clip path group">
<mask id="mask0_1374_123359" style="mask-type:luminance" maskUnits="userSpaceOnUse" x="0" y="0" width="21" height="23">
<g id="clip0_1130_19530">
<path id="Vector" d="M20.6649 0.180664H0.235352V22.6034H20.6649V0.180664Z" fill="white"/>
</g>
</mask>
<g mask="url(#mask0_1374_123359)">
<g id="Group">
<path id="Vector_2" fill-rule="evenodd" clip-rule="evenodd" d="M0.235352 10.4125V4.75075C0.235352 3.07817 1.05812 1.64409 2.49919 0.809785C3.94445 -0.0290429 5.59436 -0.0290429 7.03523 0.809785L12.7651 4.13032L18.4993 7.45089C19.6502 8.11856 20.4092 9.16689 20.6649 10.4121H18.2943C18.111 10.0056 17.7956 9.6718 17.3649 9.41934L5.90123 2.7781C5.15938 2.35017 4.37506 2.35017 3.6332 2.7781C2.89572 3.20602 2.49919 3.89074 2.49919 4.75075V10.4125H0.235352ZM7.60654 5.20874L15.3149 10.5447C15.4555 10.6389 15.5365 10.7844 15.545 10.9599C15.5499 11.0426 15.5351 11.1252 15.5017 11.201C15.4683 11.2769 15.4174 11.3438 15.3531 11.3964L14.7178 11.9311L14.0101 11.4435L12.0659 10.0954C11.8796 9.96778 11.6569 9.90321 11.4308 9.91139C11.2047 9.923 10.9887 10.0088 10.8169 10.1553L10.2456 10.6389C10.197 10.681 10.1353 10.7052 10.0708 10.7073C10.0069 10.7117 9.94345 10.6935 9.89168 10.656L4.88658 7.19429L6.25934 5.41826C6.4132 5.21719 6.63934 5.08306 6.89047 5.04401C7.1416 5.00495 7.39821 5.06398 7.60654 5.20874Z" fill="#009EC2"/>
<path id="Vector_3" fill-rule="evenodd" clip-rule="evenodd" d="M18.4993 15.3328L12.7651 18.6533L7.03523 21.974C5.59436 22.8126 3.94445 22.8126 2.49919 21.974C1.05812 21.1395 0.235352 19.706 0.235352 18.0328V12.3679H3.60769C3.69696 12.3764 3.78684 12.3764 3.87611 12.3679C4.44721 12.3361 4.98434 12.088 5.37696 11.6746L5.37259 11.6703L5.1807 11.5376C5.13868 11.5078 5.10308 11.4701 5.07597 11.4265C5.04886 11.3829 5.0308 11.3344 5.02286 11.2837C5.01491 11.2332 5.01723 11.1815 5.0297 11.1317C5.04215 11.082 5.0645 11.0352 5.09541 10.9943L5.38534 10.6176L8.4592 12.7438L7.98542 13.1423C7.92284 13.196 7.84396 13.2273 7.76133 13.2312C7.67869 13.2351 7.59718 13.2113 7.52985 13.1636L7.20584 12.941C6.77842 13.4091 6.26178 13.7882 5.68583 14.0564C5.10987 14.3245 4.48606 14.4763 3.8506 14.503H2.49919V18.0328C2.49919 18.8929 2.89572 19.5776 3.6332 20.0055C4.37506 20.4335 5.15938 20.4335 5.90123 20.0055L17.3649 13.3639C17.7956 13.1115 18.111 12.7777 18.2943 12.3679H20.6645C20.4094 13.6174 19.6502 14.6652 18.4993 15.3328ZM14.5222 12.3844L13.2987 13.8949C13.2397 13.9693 13.1544 14.0186 13.0601 14.033C12.9659 14.0473 12.8697 14.0255 12.7909 13.972L11.9937 13.4198L13.8056 11.888L13.8823 11.9394L14.2446 12.1919L14.249 12.196L14.5222 12.3844ZM13.273 11.52L11.1144 13.3385C11.0257 13.4151 10.9138 13.46 10.7964 13.4662C10.679 13.4725 10.5629 13.4396 10.4664 13.3729L4.58317 9.29834C4.35301 9.14006 4.21233 8.91333 4.16969 8.63516C4.12267 8.35263 4.19101 8.09583 4.36577 7.86909L4.59173 7.57812L9.6145 11.0535C9.75359 11.1515 9.92189 11.1999 10.0922 11.1908C10.2638 11.1842 10.4278 11.1192 10.5568 11.0066L11.1281 10.5274C11.2177 10.4476 11.332 10.4005 11.4521 10.394C11.5736 10.3887 11.6934 10.4233 11.7931 10.4925L13.273 11.52Z" fill="#009EC2"/>
</g>
</g>
</g>
</g>
</svg>
